<svg width="186" height="34" viewBox="0 0 186 34" fill="none" xmlns="http://www.w3.org/2000/svg">
<mask id="path-1-inside-1_2_1485" fill="white">
<path d="M0 6C0 2.68629 2.68629 0 6 0H179.64C182.954 0 185.64 2.68629 185.64 6V28C185.64 31.3137 182.954 34 179.64 34H6C2.68629 34 0 31.3137 0 28V6Z"/>
</mask>
<path d="M0 6C0 2.68629 2.68629 0 6 0H179.64C182.954 0 185.64 2.68629 185.64 6V28C185.64 31.3137 182.954 34 179.64 34H6C2.68629 34 0 31.3137 0 28V6Z" fill="#D3D9E9" fill-opacity="0.5"/>
<path d="M6 0V1H179.64V0V-1H6V0ZM185.64 6H184.64V28H185.64H186.64V6H185.64ZM179.64 34V33H6V34V35H179.64V34ZM0 28H1V6H0H-1V28H0ZM6 34V33C3.23858 33 1 30.7614 1 28H0H-1C-1 31.866 2.13401 35 6 35V34ZM185.64 28H184.64C184.64 30.7614 182.401 33 179.64 33V34V35C183.506 35 186.64 31.866 186.64 28H185.64ZM179.64 0V1C182.401 1 184.64 3.23858 184.64 6H185.64H186.64C186.64 2.13401 183.506 -1 179.64 -1V0ZM6 0V-1C2.13401 -1 -1 2.13401 -1 6H0H1C1 3.23858 3.23858 1 6 1V0Z" fill="#C9D0E4" fill-opacity="0.5" mask="url(#path-1-inside-1_2_1485)"/>
<rect x="13" y="14" width="6" height="6" rx="3" fill="#2CB463"/>
<path d="M26.984 22H25.3533L29.0174 11.8182H30.7922L34.4563 22H32.8256L29.9471 13.6676H29.8675L26.984 22ZM27.2574 18.0128H32.5472V19.3054H27.2574V18.0128ZM36.9438 11.8182V22H35.4573V11.8182H36.9438ZM40.0802 11.8182V22H38.5937V11.8182H40.0802ZM50.8074 16.228L49.4601 16.4666C49.4037 16.2943 49.3142 16.1302 49.1916 15.9744C49.0723 15.8187 48.9099 15.6911 48.7044 15.5916C48.4989 15.4922 48.242 15.4425 47.9338 15.4425C47.5129 15.4425 47.1615 15.5369 46.8798 15.7259C46.5981 15.9115 46.4572 16.1518 46.4572 16.4467C46.4572 16.7019 46.5517 16.9074 46.7406 17.0632C46.9295 17.219 47.2345 17.3466 47.6554 17.446L48.8685 17.7244C49.5711 17.8868 50.0948 18.1371 50.4395 18.4751C50.7842 18.8132 50.9565 19.2524 50.9565 19.7926C50.9565 20.25 50.8239 20.6577 50.5588 21.0156C50.297 21.3703 49.9307 21.6487 49.4601 21.8509C48.9927 22.053 48.4508 22.1541 47.8344 22.1541C46.9793 22.1541 46.2816 21.9718 45.7413 21.6072C45.2011 21.2393 44.8696 20.7173 44.747 20.0412L46.1838 19.8224C46.2733 20.197 46.4572 20.4804 46.7356 20.6726C47.0141 20.8615 47.377 20.956 47.8244 20.956C48.3116 20.956 48.7011 20.8549 48.9927 20.6527C49.2844 20.4472 49.4302 20.197 49.4302 19.902C49.4302 19.6634 49.3408 19.4628 49.1618 19.3004C48.9861 19.138 48.716 19.0154 48.3514 18.9325L47.0588 18.6491C46.3462 18.4867 45.8192 18.2282 45.4778 17.8736C45.1398 17.5189 44.9707 17.0698 44.9707 16.5263C44.9707 16.0755 45.0967 15.6811 45.3486 15.343C45.6005 15.005 45.9485 14.7415 46.3926 14.5526C46.8367 14.3603 47.3455 14.2642 47.9189 14.2642C48.7442 14.2642 49.3938 14.4432 49.8677 14.8011C50.3417 15.1558 50.6549 15.6314 50.8074 16.228ZM53.1806 24.8636C52.9585 24.8636 52.7563 24.8454 52.574 24.8089C52.3917 24.7758 52.2559 24.7393 52.1664 24.6996L52.5243 23.4815C52.7961 23.5545 53.038 23.5859 53.2502 23.576C53.4623 23.5661 53.6496 23.4865 53.812 23.3374C53.9777 23.1882 54.1235 22.9446 54.2495 22.6065L54.4334 22.0994L51.6394 14.3636H53.2303L55.1642 20.2898H55.2438L57.1777 14.3636H58.7736L55.6266 23.0192C55.4808 23.4169 55.2951 23.7533 55.0698 24.0284C54.8444 24.3068 54.5759 24.5156 54.2644 24.6548C53.9528 24.794 53.5916 24.8636 53.1806 24.8636ZM65.5429 16.228L64.1956 16.4666C64.1393 16.2943 64.0498 16.1302 63.9272 15.9744C63.8078 15.8187 63.6454 15.6911 63.4399 15.5916C63.2345 15.4922 62.9776 15.4425 62.6693 15.4425C62.2484 15.4425 61.8971 15.5369 61.6154 15.7259C61.3336 15.9115 61.1928 16.1518 61.1928 16.4467C61.1928 16.7019 61.2872 16.9074 61.4762 17.0632C61.6651 17.219 61.97 17.3466 62.3909 17.446L63.604 17.7244C64.3067 17.8868 64.8303 18.1371 65.175 18.4751C65.5197 18.8132 65.6921 19.2524 65.6921 19.7926C65.6921 20.25 65.5595 20.6577 65.2943 21.0156C65.0325 21.3703 64.6663 21.6487 64.1956 21.8509C63.7283 22.053 63.1864 22.1541 62.5699 22.1541C61.7148 22.1541 61.0171 21.9718 60.4769 21.6072C59.9366 21.2393 59.6052 20.7173 59.4826 20.0412L60.9193 19.8224C61.0088 20.197 61.1928 20.4804 61.4712 20.6726C61.7496 20.8615 62.1125 20.956 62.56 20.956C63.0472 20.956 63.4366 20.8549 63.7283 20.6527C64.02 20.4472 64.1658 20.197 64.1658 19.902C64.1658 19.6634 64.0763 19.4628 63.8973 19.3004C63.7217 19.138 63.4515 19.0154 63.087 18.9325L61.7943 18.6491C61.0818 18.4867 60.5548 18.2282 60.2134 17.8736C59.8753 17.5189 59.7063 17.0698 59.7063 16.5263C59.7063 16.0755 59.8322 15.6811 60.0841 15.343C60.336 15.005 60.684 14.7415 61.1282 14.5526C61.5723 14.3603 62.081 14.2642 62.6544 14.2642C63.4797 14.2642 64.1293 14.4432 64.6033 14.8011C65.0773 15.1558 65.3905 15.6314 65.5429 16.228ZM70.5411 14.3636V15.5568H66.3699V14.3636H70.5411ZM67.4886 12.5341H68.9751V19.7578C68.9751 20.0462 69.0181 20.2633 69.1043 20.4091C69.1905 20.5516 69.3015 20.6494 69.4374 20.7024C69.5766 20.7521 69.7274 20.777 69.8898 20.777C70.0092 20.777 70.1136 20.7687 70.203 20.7521C70.2925 20.7356 70.3621 20.7223 70.4119 20.7124L70.6803 21.9403C70.5941 21.9735 70.4715 22.0066 70.3124 22.0398C70.1533 22.0762 69.9545 22.0961 69.7158 22.0994C69.3247 22.1061 68.9601 22.0365 68.6221 21.8906C68.284 21.7448 68.0106 21.5194 67.8018 21.2145C67.593 20.9096 67.4886 20.5268 67.4886 20.0661V12.5341ZM75.0446 22.1541C74.2923 22.1541 73.6443 21.9934 73.1007 21.6719C72.5605 21.3471 72.1429 20.8913 71.8479 20.3047C71.5562 19.7147 71.4104 19.0237 71.4104 18.2315C71.4104 17.4493 71.5562 16.7599 71.8479 16.1634C72.1429 15.5668 72.5539 15.1011 73.0809 14.7663C73.6112 14.4316 74.2309 14.2642 74.9402 14.2642C75.3711 14.2642 75.7887 14.3355 76.1931 14.478C76.5974 14.6205 76.9603 14.8442 77.2818 15.1491C77.6033 15.4541 77.8569 15.8501 78.0425 16.3374C78.2281 16.8213 78.3209 17.4096 78.3209 18.1023V18.6293H72.2506V17.5156H76.8642C76.8642 17.1245 76.7847 16.7782 76.6256 16.4766C76.4665 16.1716 76.2428 15.9313 75.9544 15.7557C75.6694 15.58 75.3346 15.4922 74.9502 15.4922C74.5326 15.4922 74.168 15.5949 73.8564 15.8004C73.5482 16.0026 73.3095 16.2678 73.1405 16.5959C72.9748 16.9207 72.8919 17.2737 72.8919 17.6548V18.5249C72.8919 19.0353 72.9814 19.4695 73.1604 19.8274C73.3427 20.1854 73.5962 20.4588 73.9211 20.6477C74.2459 20.8333 74.6254 20.9261 75.0595 20.9261C75.3413 20.9261 75.5981 20.8864 75.8301 20.8068C76.0621 20.724 76.2627 20.6013 76.4317 20.4389C76.6007 20.2765 76.73 20.076 76.8195 19.8374L78.2264 20.0909C78.1138 20.5052 77.9116 20.8681 77.6199 21.1797C77.3316 21.4879 76.9686 21.7282 76.5311 21.9006C76.0969 22.0696 75.6014 22.1541 75.0446 22.1541ZM79.6202 22V14.3636H81.0471V15.6065H81.1415C81.3006 15.1856 81.5608 14.8575 81.9221 14.6222C82.2833 14.3835 82.7159 14.2642 83.2197 14.2642C83.7301 14.2642 84.1576 14.3835 84.5023 14.6222C84.8503 14.8608 85.1072 15.1889 85.2729 15.6065H85.3525C85.5348 15.1989 85.8248 14.8741 86.2225 14.6321C86.6202 14.3868 87.0942 14.2642 87.6444 14.2642C88.3371 14.2642 88.9022 14.4813 89.3397 14.9155C89.7805 15.3497 90.0009 16.0043 90.0009 16.8793V22H88.5144V17.0185C88.5144 16.5014 88.3735 16.1269 88.0918 15.8949C87.8101 15.6629 87.4737 15.5469 87.0826 15.5469C86.5987 15.5469 86.2225 15.696 85.954 15.9943C85.6856 16.2893 85.5513 16.6688 85.5513 17.1328V22H84.0698V16.924C84.0698 16.5097 83.9405 16.1766 83.682 15.9247C83.4235 15.6728 83.0871 15.5469 82.6728 15.5469C82.3911 15.5469 82.1309 15.6214 81.8922 15.7706C81.6569 15.9164 81.4663 16.1203 81.3205 16.3821C81.178 16.6439 81.1067 16.9472 81.1067 17.2919V22H79.6202ZM97.3656 16.228L96.0183 16.4666C95.9619 16.2943 95.8724 16.1302 95.7498 15.9744C95.6305 15.8187 95.4681 15.6911 95.2626 15.5916C95.0571 15.4922 94.8002 15.4425 94.492 15.4425C94.0711 15.4425 93.7197 15.5369 93.438 15.7259C93.1563 15.9115 93.0154 16.1518 93.0154 16.4467C93.0154 16.7019 93.1099 16.9074 93.2988 17.0632C93.4877 17.219 93.7927 17.3466 94.2136 17.446L95.4267 17.7244C96.1293 17.8868 96.653 18.1371 96.9977 18.4751C97.3424 18.8132 97.5147 19.2524 97.5147 19.7926C97.5147 20.25 97.3822 20.6577 97.117 21.0156C96.8552 21.3703 96.4889 21.6487 96.0183 21.8509C95.551 22.053 95.009 22.1541 94.3926 22.1541C93.5375 22.1541 92.8398 21.9718 92.2995 21.6072C91.7593 21.2393 91.4278 20.7173 91.3052 20.0412L92.742 19.8224C92.8315 20.197 93.0154 20.4804 93.2938 20.6726C93.5723 20.8615 93.9352 20.956 94.3826 20.956C94.8698 20.956 95.2593 20.8549 95.5509 20.6527C95.8426 20.4472 95.9884 20.197 95.9884 19.902C95.9884 19.6634 95.899 19.4628 95.72 19.3004C95.5443 19.138 95.2742 19.0154 94.9096 18.9325L93.617 18.6491C92.9044 18.4867 92.3774 18.2282 92.036 17.8736C91.698 17.5189 91.5289 17.0698 91.5289 16.5263C91.5289 16.0755 91.6549 15.6811 91.9068 15.343C92.1587 15.005 92.5067 14.7415 92.9508 14.5526C93.3949 14.3603 93.9037 14.2642 94.4771 14.2642C95.3024 14.2642 95.952 14.4432 96.426 14.8011C96.8999 15.1558 97.2131 15.6314 97.3656 16.228ZM105.371 22.1541C104.655 22.1541 104.03 21.9901 103.497 21.6619C102.963 21.3338 102.549 20.8748 102.254 20.2848C101.959 19.6948 101.811 19.0054 101.811 18.2166C101.811 17.4245 101.959 16.7318 102.254 16.1385C102.549 15.5452 102.963 15.0845 103.497 14.7564C104.03 14.4283 104.655 14.2642 105.371 14.2642C106.087 14.2642 106.712 14.4283 107.245 14.7564C107.779 15.0845 108.193 15.5452 108.488 16.1385C108.783 16.7318 108.93 17.4245 108.93 18.2166C108.93 19.0054 108.783 19.6948 108.488 20.2848C108.193 20.8748 107.779 21.3338 107.245 21.6619C106.712 21.9901 106.087 22.1541 105.371 22.1541ZM105.376 20.9062C105.84 20.9062 106.224 20.7836 106.529 20.5384C106.834 20.2931 107.06 19.9666 107.205 19.5589C107.355 19.1513 107.429 18.7022 107.429 18.2116C107.429 17.7244 107.355 17.277 107.205 16.8693C107.06 16.4583 106.834 16.1286 106.529 15.88C106.224 15.6314 105.84 15.5071 105.376 15.5071C104.908 15.5071 104.521 15.6314 104.212 15.88C103.908 16.1286 103.68 16.4583 103.531 16.8693C103.386 17.277 103.313 17.7244 103.313 18.2116C103.313 18.7022 103.386 19.1513 103.531 19.5589C103.68 19.9666 103.908 20.2931 104.212 20.5384C104.521 20.7836 104.908 20.9062 105.376 20.9062ZM110.24 24.8636V14.3636H111.691V15.6016H111.816C111.902 15.4425 112.026 15.2585 112.189 15.0497C112.351 14.8409 112.576 14.6586 112.865 14.5028C113.153 14.3438 113.534 14.2642 114.008 14.2642C114.625 14.2642 115.175 14.42 115.659 14.7315C116.143 15.0431 116.522 15.4922 116.797 16.0788C117.076 16.6655 117.215 17.3714 117.215 18.1967C117.215 19.022 117.077 19.7296 116.802 20.3196C116.527 20.9062 116.149 21.3587 115.669 21.6768C115.188 21.9917 114.64 22.1491 114.023 22.1491C113.559 22.1491 113.18 22.0713 112.885 21.9155C112.593 21.7597 112.364 21.5774 112.199 21.3686C112.033 21.1598 111.905 20.9742 111.816 20.8118H111.726V24.8636H110.24ZM111.696 18.1818C111.696 18.7187 111.774 19.1894 111.93 19.5938C112.086 19.9981 112.311 20.3146 112.606 20.5433C112.901 20.7687 113.262 20.8814 113.69 20.8814C114.134 20.8814 114.505 20.7637 114.804 20.5284C115.102 20.2898 115.327 19.9666 115.48 19.5589C115.636 19.1513 115.713 18.6922 115.713 18.1818C115.713 17.678 115.637 17.2256 115.485 16.8246C115.336 16.4235 115.11 16.107 114.809 15.875C114.51 15.643 114.137 15.527 113.69 15.527C113.259 15.527 112.895 15.638 112.596 15.8601C112.301 16.0821 112.078 16.392 111.925 16.7898C111.773 17.1875 111.696 17.6515 111.696 18.1818ZM121.822 22.1541C121.069 22.1541 120.421 21.9934 119.878 21.6719C119.337 21.3471 118.92 20.8913 118.625 20.3047C118.333 19.7147 118.187 19.0237 118.187 18.2315C118.187 17.4493 118.333 16.7599 118.625 16.1634C118.92 15.5668 119.331 15.1011 119.858 14.7663C120.388 14.4316 121.008 14.2642 121.717 14.2642C122.148 14.2642 122.566 14.3355 122.97 14.478C123.374 14.6205 123.737 14.8442 124.059 15.1491C124.38 15.4541 124.634 15.8501 124.819 16.3374C125.005 16.8213 125.098 17.4096 125.098 18.1023V18.6293H119.028V17.5156H123.641C123.641 17.1245 123.562 16.7782 123.403 16.4766C123.243 16.1716 123.02 15.9313 122.731 15.7557C122.446 15.58 122.112 15.4922 121.727 15.4922C121.31 15.4922 120.945 15.5949 120.633 15.8004C120.325 16.0026 120.086 16.2678 119.917 16.5959C119.752 16.9207 119.669 17.2737 119.669 17.6548V18.5249C119.669 19.0353 119.758 19.4695 119.937 19.8274C120.12 20.1854 120.373 20.4588 120.698 20.6477C121.023 20.8333 121.402 20.9261 121.836 20.9261C122.118 20.9261 122.375 20.8864 122.607 20.8068C122.839 20.724 123.04 20.6013 123.209 20.4389C123.378 20.2765 123.507 20.076 123.596 19.8374L125.003 20.0909C124.891 20.5052 124.689 20.8681 124.397 21.1797C124.109 21.4879 123.746 21.7282 123.308 21.9006C122.874 22.0696 122.378 22.1541 121.822 22.1541ZM126.397 22V14.3636H127.834V15.5767H127.914C128.053 15.1657 128.298 14.8426 128.649 14.6072C129.004 14.3686 129.405 14.2493 129.852 14.2493C129.945 14.2493 130.055 14.2526 130.181 14.2592C130.31 14.2659 130.411 14.2741 130.484 14.2841V15.706C130.424 15.6894 130.318 15.6712 130.166 15.6513C130.013 15.6281 129.861 15.6165 129.708 15.6165C129.357 15.6165 129.044 15.6911 128.769 15.8402C128.497 15.986 128.281 16.1899 128.122 16.4517C127.963 16.7102 127.884 17.0052 127.884 17.3366V22H126.397ZM133.574 22.169C133.09 22.169 132.653 22.0795 132.262 21.9006C131.871 21.7183 131.561 21.4548 131.332 21.1101C131.107 20.7654 130.994 20.3428 130.994 19.8423C130.994 19.4115 131.077 19.0568 131.242 18.7784C131.408 18.5 131.632 18.2796 131.914 18.1172C132.195 17.9548 132.51 17.8321 132.858 17.7493C133.206 17.6664 133.561 17.6035 133.922 17.5604C134.38 17.5073 134.751 17.4643 135.036 17.4311C135.321 17.3946 135.528 17.3366 135.657 17.2571C135.787 17.1776 135.851 17.0483 135.851 16.8693V16.8345C135.851 16.4003 135.729 16.0639 135.483 15.8253C135.241 15.5866 134.88 15.4673 134.399 15.4673C133.899 15.4673 133.505 15.5784 133.216 15.8004C132.931 16.0192 132.734 16.2628 132.625 16.5312L131.228 16.2131C131.393 15.7491 131.635 15.3745 131.953 15.0895C132.275 14.8011 132.644 14.5923 133.062 14.4631C133.48 14.3305 133.919 14.2642 134.38 14.2642C134.684 14.2642 135.008 14.3007 135.349 14.3736C135.694 14.4432 136.015 14.5724 136.314 14.7614C136.615 14.9503 136.862 15.2204 137.054 15.5717C137.247 15.9197 137.343 16.3722 137.343 16.929V22H135.891V20.956H135.831C135.735 21.1482 135.591 21.3371 135.399 21.5227C135.207 21.7083 134.96 21.8625 134.658 21.9851C134.356 22.1077 133.995 22.169 133.574 22.169ZM133.897 20.9759C134.308 20.9759 134.66 20.8946 134.951 20.7322C135.246 20.5698 135.47 20.3577 135.622 20.0959C135.778 19.8307 135.856 19.5473 135.856 19.2457V18.2614C135.803 18.3144 135.7 18.3641 135.548 18.4105C135.399 18.4536 135.228 18.4917 135.036 18.5249C134.844 18.5547 134.656 18.5829 134.474 18.6094C134.292 18.6326 134.139 18.6525 134.017 18.669C133.728 18.7055 133.465 18.7668 133.226 18.853C132.991 18.9392 132.802 19.0634 132.659 19.2259C132.52 19.3849 132.451 19.5971 132.451 19.8622C132.451 20.2301 132.586 20.5085 132.858 20.6974C133.13 20.883 133.476 20.9759 133.897 20.9759ZM142.537 14.3636V15.5568H138.366V14.3636H142.537ZM139.485 12.5341H140.971V19.7578C140.971 20.0462 141.014 20.2633 141.1 20.4091C141.187 20.5516 141.298 20.6494 141.434 20.7024C141.573 20.7521 141.724 20.777 141.886 20.777C142.005 20.777 142.11 20.7687 142.199 20.7521C142.289 20.7356 142.358 20.7223 142.408 20.7124L142.676 21.9403C142.59 21.9735 142.468 22.0066 142.309 22.0398C142.149 22.0762 141.951 22.0961 141.712 22.0994C141.321 22.1061 140.956 22.0365 140.618 21.8906C140.28 21.7448 140.007 21.5194 139.798 21.2145C139.589 20.9096 139.485 20.5268 139.485 20.0661V12.5341ZM143.832 22V14.3636H145.318V22H143.832ZM144.582 13.1854C144.324 13.1854 144.102 13.0992 143.916 12.9268C143.734 12.7512 143.643 12.5424 143.643 12.3004C143.643 12.0552 143.734 11.8464 143.916 11.674C144.102 11.4983 144.324 11.4105 144.582 11.4105C144.841 11.4105 145.061 11.4983 145.243 11.674C145.429 11.8464 145.522 12.0552 145.522 12.3004C145.522 12.5424 145.429 12.7512 145.243 12.9268C145.061 13.0992 144.841 13.1854 144.582 13.1854ZM150.185 22.1541C149.469 22.1541 148.844 21.9901 148.31 21.6619C147.777 21.3338 147.362 20.8748 147.067 20.2848C146.772 19.6948 146.625 19.0054 146.625 18.2166C146.625 17.4245 146.772 16.7318 147.067 16.1385C147.362 15.5452 147.777 15.0845 148.31 14.7564C148.844 14.4283 149.469 14.2642 150.185 14.2642C150.9 14.2642 151.525 14.4283 152.059 14.7564C152.592 15.0845 153.007 15.5452 153.302 16.1385C153.597 16.7318 153.744 17.4245 153.744 18.2166C153.744 19.0054 153.597 19.6948 153.302 20.2848C153.007 20.8748 152.592 21.3338 152.059 21.6619C151.525 21.9901 150.9 22.1541 150.185 22.1541ZM150.189 20.9062C150.653 20.9062 151.038 20.7836 151.343 20.5384C151.648 20.2931 151.873 19.9666 152.019 19.5589C152.168 19.1513 152.243 18.7022 152.243 18.2116C152.243 17.7244 152.168 17.277 152.019 16.8693C151.873 16.4583 151.648 16.1286 151.343 15.88C151.038 15.6314 150.653 15.5071 150.189 15.5071C149.722 15.5071 149.334 15.6314 149.026 15.88C148.721 16.1286 148.494 16.4583 148.345 16.8693C148.199 17.277 148.126 17.7244 148.126 18.2116C148.126 18.7022 148.199 19.1513 148.345 19.5589C148.494 19.9666 148.721 20.2931 149.026 20.5384C149.334 20.7836 149.722 20.9062 150.189 20.9062ZM156.54 17.4659V22H155.053V14.3636H156.48V15.6065H156.575C156.75 15.2022 157.025 14.8774 157.4 14.6321C157.778 14.3868 158.253 14.2642 158.827 14.2642C159.347 14.2642 159.803 14.3736 160.194 14.5923C160.585 14.8078 160.888 15.1293 161.104 15.5568C161.319 15.9844 161.427 16.513 161.427 17.1428V22H159.941V17.3217C159.941 16.7682 159.796 16.3357 159.508 16.0241C159.22 15.7093 158.824 15.5518 158.32 15.5518C157.975 15.5518 157.668 15.6264 157.4 15.7756C157.135 15.9247 156.924 16.1435 156.769 16.4318C156.616 16.7169 156.54 17.0616 156.54 17.4659ZM165.293 22.169C164.809 22.169 164.372 22.0795 163.98 21.9006C163.589 21.7183 163.279 21.4548 163.051 21.1101C162.825 20.7654 162.713 20.3428 162.713 19.8423C162.713 19.4115 162.796 19.0568 162.961 18.7784C163.127 18.5 163.351 18.2796 163.632 18.1172C163.914 17.9548 164.229 17.8321 164.577 17.7493C164.925 17.6664 165.28 17.6035 165.641 17.5604C166.098 17.5073 166.47 17.4643 166.755 17.4311C167.04 17.3946 167.247 17.3366 167.376 17.2571C167.505 17.1776 167.57 17.0483 167.57 16.8693V16.8345C167.57 16.4003 167.447 16.0639 167.202 15.8253C166.96 15.5866 166.599 15.4673 166.118 15.4673C165.618 15.4673 165.223 15.5784 164.935 15.8004C164.65 16.0192 164.453 16.2628 164.343 16.5312L162.946 16.2131C163.112 15.7491 163.354 15.3745 163.672 15.0895C163.994 14.8011 164.363 14.5923 164.781 14.4631C165.198 14.3305 165.638 14.2642 166.098 14.2642C166.403 14.2642 166.726 14.3007 167.068 14.3736C167.412 14.4432 167.734 14.5724 168.032 14.7614C168.334 14.9503 168.581 15.2204 168.773 15.5717C168.965 15.9197 169.061 16.3722 169.061 16.929V22H167.61V20.956H167.55C167.454 21.1482 167.31 21.3371 167.117 21.5227C166.925 21.7083 166.678 21.8625 166.377 21.9851C166.075 22.1077 165.714 22.169 165.293 22.169ZM165.616 20.9759C166.027 20.9759 166.378 20.8946 166.67 20.7322C166.965 20.5698 167.189 20.3577 167.341 20.0959C167.497 19.8307 167.575 19.5473 167.575 19.2457V18.2614C167.522 18.3144 167.419 18.3641 167.267 18.4105C167.117 18.4536 166.947 18.4917 166.755 18.5249C166.562 18.5547 166.375 18.5829 166.193 18.6094C166.01 18.6326 165.858 18.6525 165.735 18.669C165.447 18.7055 165.184 18.7668 164.945 18.853C164.71 18.9392 164.521 19.0634 164.378 19.2259C164.239 19.3849 164.169 19.5971 164.169 19.8622C164.169 20.2301 164.305 20.5085 164.577 20.6974C164.849 20.883 165.195 20.9759 165.616 20.9759ZM172.178 11.8182V22H170.691V11.8182H172.178Z" fill="#464853"/>
</svg>
