<svg width="112" height="112" viewBox="0 0 112 112" fill="none" xmlns="http://www.w3.org/2000/svg">
<path d="M43.4665 14.1335C33.4665 17.2002 22.1332 29.2002 19.1998 39.6002C17.1998 46.6668 16.5332 47.7335 11.4665 50.1335C0.933175 55.0668 -3.20016 70.6668 3.59984 79.8668C9.19984 87.3335 13.9998 89.3335 26.7998 89.3335C38.5332 89.3335 38.6665 89.3335 38.6665 86.0002C38.6665 82.6668 38.3998 82.6668 28.3998 82.6668C15.7332 82.6668 10.3998 80.0002 7.99984 72.6668C5.33317 64.5335 10.1332 56.5335 18.9332 54.8002C22.7998 54.0002 23.4665 53.2002 24.3998 48.6668C25.0665 45.7335 27.1998 40.0002 29.1998 36.0002C34.2665 25.8668 42.2665 20.9335 54.6665 20.2668C62.6665 19.7335 64.6665 20.1335 70.6665 23.4668C78.3998 27.7335 83.0665 33.0668 85.7332 40.8002C87.1998 44.9335 88.9332 46.6668 94.1332 49.3335C101.867 53.3335 105.867 59.6002 104.8 66.5335C103.2 77.2002 95.5998 82.6668 82.3998 82.6668C73.5998 82.6668 73.3332 82.8002 73.3332 86.0002C73.3332 89.2002 73.5998 89.3335 83.0665 89.3335C95.1998 89.3335 102.533 86.1335 107.2 79.0668C111.467 72.5335 112.533 68.0002 111.333 60.5335C110.4 53.7335 103.867 45.3335 97.4665 42.8002C94.9332 41.7335 92.7998 39.0668 90.7998 34.6668C89.0665 30.9335 84.9332 25.4668 81.0665 22.0002C70.5332 12.5335 57.5998 9.86684 43.4665 14.1335Z" fill="#2E3038"/>
<path d="M46.6663 62C39.5996 69.2 39.5996 69.3333 41.9996 72L44.5329 74.6667L48.5329 70.8L52.6663 66.8L52.2663 83.3333L51.8663 100H55.8663H59.9996V83.7333V67.4667L63.7329 71.0667L67.5996 74.6667L69.9996 72C72.3996 69.3333 72.3996 69.2 65.3329 62C61.3329 58 57.1996 54.6667 55.9996 54.6667C54.7996 54.6667 50.6663 58 46.6663 62Z" fill="#2E3038"/>
</svg>
